<svg version="1.2" xmlns="http://www.w3.org/2000/svg" viewBox="0 0 224 184" width="224" height="184">
	<title>Group 18389-svg</title>
	<style>
		.s0 { fill: #5d3bee80 } 
	</style>
	<g style="opacity: .1">
		<path class="s0" d="m143.7 35.3l19.1-19.9c7.4-7.6 19.4-7.6 26.7 0 7.4 7.7 7.4 20.1 0 27.7l-19.1 19.9c-7.4 7.7-19.4 7.7-26.7 0-7.4-7.6-7.4-20 0-27.7z"/>
		<path class="s0" d="m11.3 175.4l94.6-98.1c7.3-7.6 19.3-7.6 26.7 0 7.4 7.7 7.4 20.1 0 27.8l-94.5 98.1c-7.4 7.6-19.4 7.6-26.8 0-7.4-7.7-7.4-20.1 0-27.8z"/>
		<path class="s0" d="m-33.7 315.3l278.3-288.9c7.4-7.6 19.4-7.6 26.8 0 7.4 7.7 7.4 20.1 0 27.8l-278.4 288.8c-7.3 7.6-19.3 7.6-26.7 0-7.4-7.7-7.4-20.1 0-27.7z"/>
		<path class="s0" d="m150.2 212.3l87-90.3c7.4-7.7 19.3-7.7 26.7 0 7.4 7.6 7.4 20.1 0 27.7l-87 90.3c-7.4 7.7-19.4 7.7-26.7 0-7.4-7.6-7.4-20 0-27.7z"/>
	</g>
</svg>